<?xml version="1.0" encoding="utf-8"?>
<!-- Generator: Adobe Illustrator 21.0.0, SVG Export Plug-In . SVG Version: 6.00 Build 0)  -->
<svg version="1.1" id="Layer_1" xmlns="http://www.w3.org/2000/svg" xmlns:xlink="http://www.w3.org/1999/xlink" x="0px" y="0px"
	 viewBox="0 0 195.7 194" style="enable-background:new 0 0 195.7 194;" xml:space="preserve">
<style type="text/css">
	.st0{fill-rule:evenodd;clip-rule:evenodd;fill:#FFFFFF;}
	.st1{fill:#ED1C24;}
	.st2{fill:#FFFFFF;}
</style>
<g>
	<polygon class="st0" points="-0.3,-0.3 195.4,-0.3 195.4,194.5 -0.3,194.5 -0.3,-0.3 	"/>
	<path class="st1" d="M186.8,97.1c0,49-40,88.8-89.2,88.8c-49.3,0-89.2-39.7-89.2-88.8c0-49,40-88.8,89.2-88.8
		C146.8,8.3,186.8,48.1,186.8,97.1L186.8,97.1z"/>
	<path class="st2" d="M176.7,97.1c0,43.5-35.4,78.7-79.1,78.7c-43.7,0-79.1-35.2-79.1-78.7s35.4-78.7,79.1-78.7
		C141.2,18.4,176.7,53.7,176.7,97.1L176.7,97.1z"/>
	<path d="M91.9,34.9c-3.1,1.4-11.9,6.5-20.8,12.6c-1.1,0.7-2.2,1.6-1.3,3.1c0.6,1,1.2,1.1,3.2,1.1h1.8c2.4,0,3.2,1,3.2,2.1
		c0,0.9-0.1,2.8-1.6,4.2c-7.9,7.3-16,15.8-23,24c-3.9,4.6-7.1,5.6-10.7,4.7c-0.3-0.1-0.4,0.1-0.5,0.3c-2.4,6.6-7.5,17.4-11.4,25.3
		c-0.4,0.8-0.4,1.2,0.4,1.8c10.2,7.1,67.4,47.7,67.7,47.9c0.5,0.4,1,0.4,1.6,0c17.1-11.6,43.6-31.4,59.5-44.2
		c1.4-1.1,1.7-1.6,1.7-3.2c0,0,0-13.4,0-13.5c0-1.2,0-1.8-0.4-3.5c-0.5-2.2-1.3-6-1.5-7.4c-0.3-1.5-1.3-1.2-1.8-0.9l-3.5,1.8
		c-3,1.5-5.1,1-7-1.8c-12.5-18.6-33-41.2-50.6-55.9c-0.8-0.6-1.8-1-2.7,0.1C93.6,34.1,93.1,34.4,91.9,34.9L91.9,34.9z"/>
	<path class="st1" d="M136,102.3c0-1.5,0.2-2.4-2-1c-2.9,1.8-14.6,9.7-23.1,13.8c-8.4,4.1-16,8-23.2,3.3c-7.2-4.7-21-12.1-28.3-13.1
		c-2.7-0.4-2.1,0.3-1.7,2.3c0.3,1.6,4.3,16.6,9.4,21.9c7,7.4,10.4,8.3,23.2,6.9c2.6-0.3,1.9-2-0.1-1.7c-1.5,0.2-1.7,0.8-4.3-1.5
		c-1.3-1.2-4.1-2.7-6.2-3.3c-2.1-0.6-3.4-0.5-4.9-0.1c-1.4,0.4-3,0.8-3.2-1c-0.2-1.8-0.2-1.4-1.7-2.9c-1.5-1.6-2.8-4.4-2.8-6.6
		c0-2.1,1.2-5,5.4-3.9c4.4,1.1,13.4,6.9,18.6,10.8c1.9,1.4,2.7,1.6,4.3,0.1c1.6-1.4,3.4-2.5,3-0.1c-0.4,2.4,1.5,2.2,1.6-0.6
		c0.1-2.8,0.4-4.1,1.6-4.1c1.2,0,1.7,0.4,1.7,1.1c0,0.6,0.4,2.1,3,1.4c2.6-0.6,4.7-1.9,7-3.4c2.3-1.5,9.5-6.4,14.4-10.6
		c2-1.7,3.2-1.6,3.5,0.6c0.3,2.2,1.6,9.8-3,13.5c-4.7,3.6-7.8,3.2-10.6,3.9c-2.8,0.7-9.5,5.5-2.2,5.1c7.3-0.4,13-3.8,16.6-9.8
		c3.6-5.9,4.1-8.1,4.4-10.1c0.3-2,0.6-4.3,0.1-5.4C136.1,106.8,136,104.9,136,102.3L136,102.3z"/>
	<path class="st2" d="M81.4,124.6c-3.7-2.7-5.2-2.9-3.7-0.2c1.2,2.3,3.3,3.1,6.8,4C86.7,128.9,86.5,128.3,81.4,124.6L81.4,124.6z"/>
	<path class="st2" d="M118.5,121c3.4-2.9,3.9-1.9,3.6,0.5c-0.2,1.5-0.6,1.9-5.1,3.7C113.7,126.6,113.8,125,118.5,121L118.5,121z"/>
</g>
</svg>
